<svg width="157" height="90" viewBox="0 0 157 90" fill="none" xmlns="http://www.w3.org/2000/svg">
<line x1="74.9794" y1="19.2857" x2="74.9794" y2="85.1786" stroke="white" stroke-width="2"/>
<path d="M64.9381 24.1071C64.9381 28.8798 61.0663 32.75 56.2887 32.75C51.511 32.75 47.6392 28.8798 47.6392 24.1071C47.6392 19.3345 51.511 15.4643 56.2887 15.4643C61.0663 15.4643 64.9381 19.3345 64.9381 24.1071Z" stroke="white" stroke-width="2"/>
<path d="M103.536 43.3929C103.536 48.1655 99.6642 52.0357 94.8866 52.0357C90.109 52.0357 86.2371 48.1655 86.2371 43.3929C86.2371 38.6202 90.109 34.75 94.8866 34.75C99.6642 34.75 103.536 38.6202 103.536 43.3929Z" stroke="white" stroke-width="2"/>
<path d="M64.9381 62.6786C64.9381 67.4512 61.0663 71.3214 56.2887 71.3214C51.511 71.3214 47.6392 67.4512 47.6392 62.6786C47.6392 57.9059 51.511 54.0357 56.2887 54.0357C61.0663 54.0357 64.9381 57.9059 64.9381 62.6786Z" stroke="white" stroke-width="2"/>
<path d="M103.536 80.3571C103.536 85.1298 99.6642 89 94.8866 89C90.109 89 86.2371 85.1298 86.2371 80.3571C86.2371 75.5845 90.109 71.7143 94.8866 71.7143C99.6642 71.7143 103.536 75.5845 103.536 80.3571Z" stroke="white" stroke-width="2"/>
<line x1="64.3299" y1="24.7143" x2="75.5876" y2="24.7143" stroke="white" stroke-width="2"/>
<line x1="64.3299" y1="63.2857" x2="75.5876" y2="63.2857" stroke="white" stroke-width="2"/>
<line x1="75.5876" y1="44" x2="86.8454" y2="44" stroke="white" stroke-width="2"/>
<line x1="75.5876" y1="80.9643" x2="86.8454" y2="80.9643" stroke="white" stroke-width="2"/>
<line x1="128.052" y1="3.21429" x2="128.052" y2="24.1071" stroke="white" stroke-width="2"/>
<line y1="-1" x2="16.0714" y2="-1" transform="matrix(0 1 -0.999989 0.00460388 131.876 8.03571)" stroke="white" stroke-width="2"/>
<line x1="137.701" y1="-7.02504e-08" x2="137.701" y2="24.1071" stroke="white" stroke-width="2"/>
<line x1="142.526" y1="14.4643" x2="142.526" y2="24.1071" stroke="white" stroke-width="2"/>
<line x1="147.351" y1="8.03571" x2="147.351" y2="24.1071" stroke="white" stroke-width="2"/>
<line x1="152.175" y1="3.21429" x2="152.175" y2="24.1071" stroke="white" stroke-width="2"/>
<line x1="127.052" y1="27.9286" x2="154.392" y2="27.9286" stroke="white" stroke-width="2"/>
<line x1="127.052" y1="80.9643" x2="154.392" y2="80.9643" stroke="white" stroke-width="2"/>
<path d="M124.639 27.3214C114.99 27.3214 114.99 27.3214 114.99 35.3571C114.99 43.3929 113.381 43.3929 106.144 43.3929" stroke="white" stroke-width="2"/>
<path d="M127.856 74.7321L135.093 68.3036L139.918 73.125L144.742 60.2679L150.371 61.875L156 54.6429" stroke="white" stroke-width="2"/>
<path d="M106.144 80.3571H123.835" stroke="white" stroke-width="2"/>
<path d="M28.1443 77.1429C37.7938 77.1429 37.7938 77.1429 37.7938 69.1071C37.7938 61.0714 39.4021 61.0714 46.6392 61.0714" stroke="white" stroke-width="2"/>
<path d="M46.6392 24.1071L28.9484 24.1071" stroke="white" stroke-width="2"/>
<path d="M24.732 24.1071C24.732 30.655 19.42 35.9643 12.866 35.9643C6.31193 35.9643 1 30.655 1 24.1071C1 17.5593 6.31193 12.25 12.866 12.25C19.42 12.25 24.732 17.5593 24.732 24.1071Z" stroke="white" stroke-width="2"/>
<path d="M12.866 12.8571V24.1071L21.7113 30.5357" stroke="white" stroke-width="2"/>
<path d="M4.02062 78.75L11.2577 78.75L11.2577 73.125L16.0825 73.125L16.0825 67.5L22.5155 67.5" stroke="white" stroke-width="2"/>
<path d="M16.0825 73.125L22.5155 73.125" stroke="white" stroke-width="2"/>
<path d="M11.2577 78.75L22.5155 78.75" stroke="white" stroke-width="2"/>
<path d="M11.2577 78.75L11.2577 84.375L22.5155 84.375" stroke="white" stroke-width="2"/>
</svg>
