<svg width="198" height="116" viewBox="0 0 198 116" fill="none" xmlns="http://www.w3.org/2000/svg">
<circle cx="13.5" cy="58.5" r="12.5" stroke="white" stroke-width="2"/>
<circle cx="70.5" cy="58.5" r="12.5" stroke="white" stroke-width="2"/>
<circle cx="127.5" cy="58.5" r="12.5" stroke="white" stroke-width="2"/>
<circle cx="184.5" cy="58.5" r="12.5" stroke="white" stroke-width="2"/>
<circle cx="127.5" cy="102.5" r="12.5" stroke="white" stroke-width="2"/>
<path d="M57.7071 58.7071C58.0976 58.3166 58.0976 57.6834 57.7071 57.2929L51.3431 50.9289C50.9526 50.5384 50.3195 50.5384 49.9289 50.9289C49.5384 51.3195 49.5384 51.9526 49.9289 52.3431L55.5858 58L49.9289 63.6569C49.5384 64.0474 49.5384 64.6805 49.9289 65.0711C50.3195 65.4616 50.9526 65.4616 51.3431 65.0711L57.7071 58.7071ZM27 59H57V57H27V59Z" fill="white"/>
<path d="M114.707 58.7071C115.098 58.3166 115.098 57.6834 114.707 57.2929L108.343 50.9289C107.953 50.5384 107.319 50.5384 106.929 50.9289C106.538 51.3195 106.538 51.9526 106.929 52.3431L112.586 58L106.929 63.6569C106.538 64.0474 106.538 64.6805 106.929 65.0711C107.319 65.4616 107.953 65.4616 108.343 65.0711L114.707 58.7071ZM84 59H114V57H84V59Z" fill="white"/>
<path d="M117.184 95.9829C117.727 95.8811 118.085 95.3585 117.983 94.8157L116.324 85.9699C116.222 85.427 115.7 85.0695 115.157 85.1713C114.614 85.2731 114.257 85.7956 114.359 86.3384L115.833 94.2014L107.97 95.6757C107.427 95.7775 107.07 96.3001 107.171 96.8429C107.273 97.3857 107.796 97.7433 108.338 97.6415L117.184 95.9829ZM78.4353 69.8253L116.435 95.8253L117.565 94.1747L79.5647 68.1747L78.4353 69.8253Z" fill="white"/>
<path d="M171.707 58.7071C172.098 58.3166 172.098 57.6834 171.707 57.2929L165.343 50.9289C164.953 50.5384 164.319 50.5384 163.929 50.9289C163.538 51.3195 163.538 51.9526 163.929 52.3431L169.586 58L163.929 63.6569C163.538 64.0474 163.538 64.6805 163.929 65.0711C164.319 65.4616 164.953 65.4616 165.343 65.0711L171.707 58.7071ZM141 59H171V57H141V59Z" fill="white"/>
<path d="M171.707 13.7071C172.098 13.3166 172.098 12.6834 171.707 12.2929L165.343 5.92894C164.953 5.53842 164.319 5.53842 163.929 5.92894C163.538 6.31947 163.538 6.95263 163.929 7.34316L169.586 13L163.929 18.6569C163.538 19.0474 163.538 19.6806 163.929 20.0711C164.319 20.4616 164.953 20.4616 165.343 20.0711L171.707 13.7071ZM39 14L171 14L171 12L39 12L39 14Z" fill="white"/>
<path d="M39 12.5L17.5 46" stroke="white" stroke-width="2"/>
<circle cx="184.5" cy="13.5" r="12.5" stroke="white" stroke-width="2"/>
</svg>
