<svg width="485" height="223" viewBox="0 0 485 223" fill="none" xmlns="http://www.w3.org/2000/svg">
<rect x="1" y="1" width="169" height="110" stroke="white" stroke-width="2"/>
<line x1="31" y1="31" x2="92" y2="31" stroke="white" stroke-width="2"/>
<line x1="8" y1="42" x2="92" y2="42" stroke="white" stroke-width="2"/>
<line x1="8" y1="53" x2="92" y2="53" stroke="white" stroke-width="2"/>
<line x1="8" y1="65" x2="92" y2="65" stroke="white" stroke-width="2"/>
<line x1="8" y1="103" x2="92" y2="103" stroke="white" stroke-width="2"/>
<circle cx="9.5" cy="8.5" r="1.5" fill="white"/>
<circle cx="16.5" cy="8.5" r="1.5" fill="white"/>
<circle cx="23.5" cy="8.5" r="1.5" fill="white"/>
<path d="M10.0048 31.25L16.5 20L22.9952 31.25H10.0048Z" stroke="white" stroke-width="2"/>
<rect x="104" y="31" width="58" height="72" stroke="white" stroke-width="2"/>
<rect x="9" y="74" width="82" height="21" stroke="white" stroke-width="2"/>
<path d="M393 37C393 40.8097 389.7 44 385.5 44C381.3 44 378 40.8097 378 37C378 33.1903 381.3 30 385.5 30C389.7 30 393 33.1903 393 37Z" stroke="white" stroke-width="2"/>
<path d="M393 56C393 59.8097 389.7 63 385.5 63C381.3 63 378 59.8097 378 56C378 52.1903 381.3 49 385.5 49C389.7 49 393 52.1903 393 56Z" stroke="white" stroke-width="2"/>
<path d="M413.066 56C413.066 59.8097 409.766 63 405.566 63C401.366 63 398.066 59.8097 398.066 56C398.066 52.1903 401.366 49 405.566 49C409.766 49 413.066 52.1903 413.066 56Z" stroke="white" stroke-width="2"/>
<path d="M413.066 37C413.066 40.8097 409.766 44 405.566 44C401.366 44 398.066 40.8097 398.066 37C398.066 33.1903 401.366 30 405.566 30C409.766 30 413.066 33.1903 413.066 37Z" stroke="white" stroke-width="2"/>
<path d="M433 36C433 39.8097 429.7 43 425.5 43C421.3 43 418 39.8097 418 36C418 32.1903 421.3 29 425.5 29C429.7 29 433 32.1903 433 36Z" stroke="white" stroke-width="2"/>
<path d="M433 56C433 59.8097 429.7 63 425.5 63C421.3 63 418 59.8097 418 56C418 52.1903 421.3 49 425.5 49C429.7 49 433 52.1903 433 56Z" stroke="white" stroke-width="2"/>
<path d="M453 56C453 59.8097 449.7 63 445.5 63C441.3 63 438 59.8097 438 56C438 52.1903 441.3 49 445.5 49C449.7 49 453 52.1903 453 56Z" stroke="white" stroke-width="2"/>
<path d="M433 75C433 78.8097 429.7 82 425.5 82C421.3 82 418 78.8097 418 75C418 71.1903 421.3 68 425.5 68C429.7 68 433 71.1903 433 75Z" stroke="white" stroke-width="2"/>
<path d="M412.934 18C412.934 21.8097 409.634 25 405.434 25C401.234 25 397.934 21.8097 397.934 18C397.934 14.1903 401.234 11 405.434 11C409.634 11 412.934 14.1903 412.934 18Z" stroke="white" stroke-width="2"/>
<path d="M413.066 75C413.066 78.8097 409.766 82 405.566 82C401.366 82 398.066 78.8097 398.066 75C398.066 71.1903 401.366 68 405.566 68C409.766 68 413.066 71.1903 413.066 75Z" stroke="white" stroke-width="2"/>
<path d="M413.066 94C413.066 97.8097 409.766 101 405.566 101C401.366 101 398.066 97.8097 398.066 94C398.066 90.1903 401.366 87 405.566 87C409.766 87 413.066 90.1903 413.066 94Z" stroke="white" stroke-width="2"/>
<path d="M393 75C393 78.8097 389.7 82 385.5 82C381.3 82 378 78.8097 378 75C378 71.1903 381.3 68 385.5 68C389.7 68 393 71.1903 393 75Z" stroke="white" stroke-width="2"/>
<path d="M213.707 58.7071C214.098 58.3166 214.098 57.6834 213.707 57.2929L207.343 50.9289C206.953 50.5384 206.319 50.5384 205.929 50.9289C205.538 51.3195 205.538 51.9526 205.929 52.3431L211.586 58L205.929 63.6569C205.538 64.0474 205.538 64.6805 205.929 65.0711C206.319 65.4616 206.953 65.4616 207.343 65.0711L213.707 58.7071ZM178 59H213V57H178V59Z" fill="white"/>
<path d="M85.7071 127.293C85.3166 126.902 84.6834 126.902 84.2929 127.293L77.9289 133.657C77.5384 134.047 77.5384 134.681 77.9289 135.071C78.3195 135.462 78.9526 135.462 79.3431 135.071L85 129.414L90.6569 135.071C91.0474 135.462 91.6805 135.462 92.0711 135.071C92.4616 134.681 92.4616 134.047 92.0711 133.657L85.7071 127.293ZM86 183L86 128L84 128L84 183L86 183Z" fill="white"/>
<path d="M368.707 56.7071C369.098 56.3166 369.098 55.6834 368.707 55.2929L362.343 48.9289C361.953 48.5384 361.319 48.5384 360.929 48.9289C360.538 49.3195 360.538 49.9526 360.929 50.3431L366.586 56L360.929 61.6569C360.538 62.0474 360.538 62.6805 360.929 63.0711C361.319 63.4616 361.953 63.4616 362.343 63.0711L368.707 56.7071ZM333 57H368V55H333V57Z" fill="white"/>
<line x1="217" y1="83" x2="327" y2="83" stroke="white" stroke-width="2"/>
<line x1="221" y1="87" x2="221" y2="25" stroke="white" stroke-width="2"/>
<path d="M226.5 74.5L237 65L250 71L259 68.5L273.5 54.5L287.5 66.5L308.5 34L322 27" stroke="white" stroke-width="2"/>
<path d="M240.5 75L250.5 42L276.5 64C280.167 59 287.9 49 289.5 49C291.1 49 312.5 55.3333 323 58.5" stroke="white" stroke-width="2"/>
<rect x="232" y="145" width="136" height="77" rx="11" stroke="white" stroke-width="2"/>
<line x1="338" y1="144" x2="338" y2="223" stroke="white" stroke-width="2"/>
<line x1="249" y1="144" x2="249" y2="159" stroke="white" stroke-width="2"/>
<line x1="255" y1="144" x2="255" y2="159" stroke="white" stroke-width="2"/>
<line x1="261" y1="144" x2="261" y2="159" stroke="white" stroke-width="2"/>
<line x1="267" y1="144" x2="267" y2="159" stroke="white" stroke-width="2"/>
<line x1="273" y1="144" x2="273" y2="159" stroke="white" stroke-width="2"/>
<rect x="249" y="164" width="24" height="9" stroke="white" stroke-width="2"/>
<circle cx="317.5" cy="199.5" r="11.5" stroke="white" stroke-width="2"/>
<line x1="305" y1="200" x2="248" y2="200" stroke="white" stroke-width="2"/>
<line x1="484" y1="56" x2="484" y2="184" stroke="white" stroke-width="2"/>
<path d="M379.293 182.293C378.902 182.683 378.902 183.317 379.293 183.707L385.657 190.071C386.047 190.462 386.681 190.462 387.071 190.071C387.462 189.681 387.462 189.047 387.071 188.657L381.414 183L387.071 177.343C387.462 176.953 387.462 176.319 387.071 175.929C386.681 175.538 386.047 175.538 385.657 175.929L379.293 182.293ZM484 182L380 182L380 184L484 184L484 182Z" fill="white"/>
<line x1="484" y1="57" x2="460" y2="57" stroke="white" stroke-width="2"/>
<line x1="85" y1="182" x2="136" y2="182" stroke="white" stroke-width="2"/>
<line x1="173" y1="182" x2="222" y2="182" stroke="white" stroke-width="2"/>
<rect x="143" y="173" width="23" height="17" rx="3" stroke="white" stroke-width="2"/>
<line x1="154" y1="182" x2="154" y2="187" stroke="white" stroke-width="2"/>
<path d="M148 172.5C148 167 148.5 165 154 165C160.5 165 161 166.5 161 172.5" stroke="white" stroke-width="2"/>
</svg>
