<svg width="104" height="106" viewBox="0 0 104 106" fill="none" xmlns="http://www.w3.org/2000/svg">
<style>
    rect, line, path, circle {
        stroke: #FFF;
    }
</style>
<circle cx="7" cy="30" r="6" stroke="black" stroke-width="2"/>
<circle cx="7" cy="53" r="6" stroke="black" stroke-width="2"/>
<circle cx="7" cy="76" r="6" stroke="black" stroke-width="2"/>
<circle cx="73" cy="30" r="6" stroke="black" stroke-width="2"/>
<circle cx="73" cy="53" r="6" stroke="black" stroke-width="2"/>
<circle cx="73" cy="76" r="6" stroke="black" stroke-width="2"/>
<circle cx="97" cy="41" r="6" stroke="black" stroke-width="2"/>
<circle cx="97" cy="64" r="6" stroke="black" stroke-width="2"/>
<circle cx="29" cy="7" r="6" stroke="black" stroke-width="2"/>
<circle cx="29" cy="30" r="6" stroke="black" stroke-width="2"/>
<circle cx="29" cy="53" r="6" stroke="black" stroke-width="2"/>
<circle cx="29" cy="76" r="6" stroke="black" stroke-width="2"/>
<circle cx="29" cy="99" r="6" stroke="black" stroke-width="2"/>
<circle cx="51" cy="7" r="6" stroke="black" stroke-width="2"/>
<circle cx="51" cy="30" r="6" stroke="black" stroke-width="2"/>
<circle cx="51" cy="53" r="6" stroke="black" stroke-width="2"/>
<circle cx="51" cy="76" r="6" stroke="black" stroke-width="2"/>
<circle cx="51" cy="99" r="6" stroke="black" stroke-width="2"/>
<line x1="11.2929" y1="25.2929" x2="25.2929" y2="11.2929" stroke="black" stroke-width="2"/>
<line y1="-1" x2="19.799" y2="-1" transform="matrix(-0.707107 -0.707107 -0.707107 0.707107 69 26)" stroke="black" stroke-width="2"/>
<line y1="-1" x2="19.799" y2="-1" transform="matrix(-0.707107 -0.707107 -0.707107 0.707107 69 48)" stroke="black" stroke-width="2"/>
<line y1="-1" x2="19.799" y2="-1" transform="matrix(-0.707107 -0.707107 -0.707107 0.707107 46 49)" stroke="black" stroke-width="2"/>
<line y1="-1" x2="19.799" y2="-1" transform="matrix(-0.707107 -0.707107 -0.707107 0.707107 47 26)" stroke="black" stroke-width="2"/>
<line y1="-1" x2="19.799" y2="-1" transform="matrix(-0.707107 -0.707107 -0.707107 0.707107 69 73)" stroke="black" stroke-width="2"/>
<line y1="-1" x2="19.799" y2="-1" transform="matrix(-0.707107 -0.707107 -0.707107 0.707107 46 72)" stroke="black" stroke-width="2"/>
<line y1="-1" x2="19.799" y2="-1" transform="matrix(-0.707107 -0.707107 -0.707107 0.707107 24 72)" stroke="black" stroke-width="2"/>
<line y1="-1" x2="19.799" y2="-1" transform="matrix(-0.707107 -0.707107 -0.707107 0.707107 24 96)" stroke="black" stroke-width="2"/>
<line y1="-1" x2="19.799" y2="-1" transform="matrix(-0.707107 -0.707107 -0.707107 0.707107 24 49)" stroke="black" stroke-width="2"/>
<line y1="-1" x2="19.799" y2="-1" transform="matrix(-0.707107 -0.707107 -0.707107 0.707107 46 95)" stroke="black" stroke-width="2"/>
<line x1="33.2929" y1="25.2929" x2="47.2929" y2="11.2929" stroke="black" stroke-width="2"/>
<line x1="33.2929" y1="49.2929" x2="47.2929" y2="35.2929" stroke="black" stroke-width="2"/>
<line x1="33.2929" y1="71.2929" x2="47.2929" y2="57.2929" stroke="black" stroke-width="2"/>
<line x1="54.2929" y1="71.2929" x2="68.2929" y2="57.2929" stroke="black" stroke-width="2"/>
<line x1="55.2929" y1="49.2929" x2="69.2929" y2="35.2929" stroke="black" stroke-width="2"/>
<line x1="78.5259" y1="73.1195" x2="91.5259" y2="66.1195" stroke="black" stroke-width="2"/>
<line x1="78.5259" y1="50.1195" x2="91.5259" y2="43.1195" stroke="black" stroke-width="2"/>
<line y1="-1" x2="14.7648" y2="-1" transform="matrix(0.880471 0.4741 0.4741 -0.880471 79 32)" stroke="black" stroke-width="2"/>
<line y1="-1" x2="14.7648" y2="-1" transform="matrix(0.880471 0.4741 0.4741 -0.880471 79 54)" stroke="black" stroke-width="2"/>
<line x1="10.2929" y1="71.2929" x2="24.2929" y2="57.2929" stroke="black" stroke-width="2"/>
<line x1="10.2929" y1="47.2929" x2="24.2929" y2="33.2929" stroke="black" stroke-width="2"/>
<line x1="33.2929" y1="94.2929" x2="47.2929" y2="80.2929" stroke="black" stroke-width="2"/>
<line x1="54.2929" y1="94.2929" x2="68.2929" y2="80.2929" stroke="black" stroke-width="2"/>
<line x1="12" y1="30" x2="23" y2="30" stroke="black" stroke-width="2"/>
<line x1="12" y1="53" x2="23" y2="53" stroke="black" stroke-width="2"/>
<line x1="13" y1="77" x2="24" y2="77" stroke="black" stroke-width="2"/>
<line x1="35" y1="77" x2="46" y2="77" stroke="black" stroke-width="2"/>
<line x1="35" y1="53" x2="46" y2="53" stroke="black" stroke-width="2"/>
<line x1="35" y1="30" x2="46" y2="30" stroke="black" stroke-width="2"/>
<line x1="56" y1="30" x2="67" y2="30" stroke="black" stroke-width="2"/>
<line x1="56" y1="53" x2="67" y2="53" stroke="black" stroke-width="2"/>
<line x1="57" y1="76" x2="68" y2="76" stroke="black" stroke-width="2"/>
<line x1="35" y1="7" x2="46" y2="7" stroke="black" stroke-width="2"/>
</svg>
