<svg width="96" height="95" viewBox="0 0 96 95" fill="none" xmlns="http://www.w3.org/2000/svg">
<style>
    rect, line, path, circle {
        stroke: #FFF;
    }
</style>
<path d="M56 37.5C56 42.2461 52.368 46 48 46C43.632 46 40 42.2461 40 37.5C40 32.7539 43.632 29 48 29C52.368 29 56 32.7539 56 37.5Z" stroke="black" stroke-width="2"/>
<path d="M48 74V47" stroke="black" stroke-width="2"/>
<path d="M42.5 43.5L36.5 50.5V67L48.5 74L60 67V50.5L54 43.5" stroke="black" stroke-width="2"/>
<path d="M39 46.5L34.5 41.5H30" stroke="black" stroke-width="2"/>
<path d="M36 53.5H32L30 57.5" stroke="black" stroke-width="2"/>
<path d="M36 64H32L30 68" stroke="black" stroke-width="2"/>
<path d="M57 46L61.5 41H66" stroke="black" stroke-width="2"/>
<path d="M44 30L39.5 25H35" stroke="black" stroke-width="2"/>
<path d="M52 30L56.5 25H61" stroke="black" stroke-width="2"/>
<path d="M60 53H64L66 57" stroke="black" stroke-width="2"/>
<path d="M60 63.5H64L66 67.5" stroke="black" stroke-width="2"/>
<circle cx="48" cy="47" r="38" stroke="black" stroke-width="2"/>
<circle cx="48" cy="47" r="42" stroke="black" stroke-width="2"/>
<line x1="49" x2="49" y2="17" stroke="black" stroke-width="2"/>
<line x1="49" y1="78" x2="49" y2="95" stroke="black" stroke-width="2"/>
<line x1="95.5" y1="48.5" x2="78.5" y2="48.5" stroke="black" stroke-width="2"/>
<line x1="17.5" y1="48.5" x2="0.5" y2="48.5" stroke="black" stroke-width="2"/>
</svg>
