<svg width="170" height="123" viewBox="0 0 170 123" fill="none" xmlns="http://www.w3.org/2000/svg">
<style>
    rect, line, path, circle {
        stroke: #FFF;
    }
</style>
<rect x="1" y="1" width="168" height="108" rx="3" stroke="black" stroke-width="2"/>
<line x1="8" y1="14" x2="44" y2="14" stroke="black" stroke-width="2"/>
<path d="M8 21H29M31.5 21H52.5" stroke="black" stroke-width="2"/>
<line x1="8" y1="28" x2="44" y2="28" stroke="black" stroke-width="2"/>
<line x1="13" y1="37" x2="36" y2="37" stroke="black" stroke-width="2"/>
<line x1="13" y1="46" x2="29" y2="46" stroke="black" stroke-width="2"/>
<line x1="32" y1="46" x2="40" y2="46" stroke="black" stroke-width="2"/>
<line x1="13" y1="55" x2="29" y2="55" stroke="black" stroke-width="2"/>
<line x1="8" y1="64" x2="44" y2="64" stroke="black" stroke-width="2"/>
<line x1="13" y1="73" x2="49" y2="73" stroke="black" stroke-width="2"/>
<line x1="13" y1="82" x2="49" y2="82" stroke="black" stroke-width="2"/>
<line x1="-8.74228e-08" y1="98" x2="170" y2="98" stroke="black" stroke-width="2"/>
<line x1="59" y1="122" x2="114" y2="122" stroke="black" stroke-width="2"/>
<line x1="59" y1="117" x2="114" y2="117" stroke="black" stroke-width="2"/>
<rect x="86" y="12" width="71" height="72" stroke="black" stroke-width="2"/>
<path d="M103.412 57L119 30L134.588 57H103.412Z" stroke="black" stroke-width="2"/>
<circle cx="131" cy="57" r="11" stroke="black" stroke-width="2"/>
</svg>
