<?xml version="1.0" encoding="UTF-8"?>
<svg width="622px" height="623px" viewBox="0 0 622 623" version="1.1" xmlns="http://www.w3.org/2000/svg" xmlns:xlink="http://www.w3.org/1999/xlink">
    <!-- Generator: Sketch 48.2 (47327) - http://www.bohemiancoding.com/sketch -->
    <title>logo</title>
    <desc>Created with Sketch.</desc>
    <defs></defs>
    <g id="Desktop-HD" stroke="none" stroke-width="1" fill="none" fill-rule="evenodd" transform="translate(-419.000000, -199.000000)">
        <g id="logo" transform="translate(419.000000, 199.000000)" fill="#F34E34" fill-rule="nonzero">
            <g id="Group">
                <path d="M491.778319,480.225199 L491.806711,480.225999 L454.40786,395 L454.319849,395.001117 L309.22792,68.8378933 L164.244388,398.684186 L164.128273,398.68566 L133,470.118506 L133.026662,470.119257 L65.5669516,623 L0,623 L279.102564,4.21515562 L342.897436,4.21515562 L622,623 L555.547009,623 L491.778319,480.225199 Z" id="A"></path>
                <path d="M417.807461,73.0057838 C385.953857,59.6792646 352.942434,53.0161049 318.772204,53.0161049 C271.860532,53.0161049 228.858811,64.3145061 189.765751,86.9116474 C150.672692,109.508789 119.688287,140.362115 96.8116071,179.472552 C73.9349276,218.582989 62.4967594,261.314122 62.4967594,307.667232 C62.4967594,354.020342 73.9349276,396.606624 96.8116071,435.427354 C119.688287,474.248084 150.672692,505.10141 189.765751,527.988258 C228.858811,550.875106 271.860532,562.318359 318.772204,562.318359 C352.363278,562.318359 385.085126,555.800051 416.938731,542.763238 C448.792335,529.726426 477.170575,511.620014 502.074302,488.443459 L538.560976,527.5537 C508.444841,555.365566 473.985549,577.382963 435.182067,593.606552 C396.378586,609.830141 356.706964,617.941813 316.166013,617.941813 C258.829525,617.941813 206.12708,604.036089 158.057095,576.224222 C109.98711,548.412356 71.908145,510.751019 43.8190575,463.239081 C15.7299699,415.727143 1.68563686,363.870378 1.68563686,307.667232 C1.68563686,251.464086 15.8747569,199.897024 44.2534226,152.964499 C72.6320883,106.031975 111.000627,68.8051918 159.36019,41.2830325 C207.719753,13.7608732 260.566986,0 317.903474,0 C359.023581,0 398.695203,7.67711875 436.919528,23.0315866 C475.143853,38.3860544 508.734423,59.6791951 537.692245,86.9116474 L502.074302,128.629238 C477.749731,104.873269 449.661065,86.3323031 417.807461,73.0057838 Z" id="C"></path>
            </g>
        </g>
    </g>
</svg>